control3min_grf.mot
version=1
nRows=20
nColumns 19
inDegrees=yes
endheader
time	1_ground_force_vx	1_ground_force_vy	1_ground_force_vz	1_ground_force_px	1_ground_force_py	1_ground_force_pz	1_ground_torque_x	1_ground_torque_y	1_ground_torque_z	2_ground_force_vx	2_ground_force_vy	2_ground_force_vz	2_ground_force_px	2_ground_force_py	2_ground_force_pz	2_ground_torque_x	2_ground_torque_y	2_ground_torque_z
            1.253500	          -10.524044	          682.349029	          -49.692212	           -0.212578	            0.006258	           -0.412630	           -0.049799	            3.228827	           -0.235140	          -14.172058	          752.568675	           55.485056	           -0.207052	            0.005661	           -0.676606	            0.035339	           -1.876585	           -0.138356
            1.254000	          -10.063306	          675.317017	          -49.310795	           -0.212556	            0.006258	           -0.412601	           -0.047791	            3.207113	           -0.234179	          -13.861941	          744.468975	           54.939816	           -0.206938	            0.005660	           -0.676110	            0.033328	           -1.789908	           -0.132090
            1.254500	           -9.784622	          667.922215	          -48.426051	           -0.212344	            0.006260	           -0.412991	           -0.046328	            3.162490	           -0.229289	          -13.651444	          738.025761	           54.541314	           -0.206822	            0.005660	           -0.676135	            0.032500	           -1.757034	           -0.129848
            1.255000	           -9.323740	          661.971146	          -47.902426	           -0.212252	            0.006259	           -0.412923	           -0.042935	            3.048293	           -0.220585	          -13.023389	          732.689872	           53.911935	           -0.206604	            0.005661	           -0.676192	            0.032687	           -1.838980	           -0.135314
            1.255500	           -9.045482	          655.658393	          -47.104756	           -0.212195	            0.006259	           -0.412866	           -0.039801	            2.884943	           -0.207264	          -12.769510	          727.168764	           53.188202	           -0.206544	            0.005661	           -0.676081	            0.031526	           -1.795261	           -0.131313
            1.256000	           -8.492848	          649.346871	          -46.582904	           -0.212055	            0.006259	           -0.412883	           -0.036026	            2.754485	           -0.197601	          -12.561212	          721.279707	           52.322391	           -0.206655	            0.005660	           -0.675993	            0.030263	           -1.737716	           -0.126056
            1.256500	           -7.757136	          643.396249	          -46.151673	           -0.212155	            0.006259	           -0.412761	           -0.033679	            2.793393	           -0.200374	          -12.350216	          714.653752	           51.547808	           -0.206463	            0.005661	           -0.676033	            0.026797	           -1.550653	           -0.111848
            1.257000	           -6.700862	          636.184843	          -45.955925	           -0.211976	            0.006260	           -0.412994	           -0.030533	            2.898862	           -0.209404	          -11.999292	          708.212050	           50.867678	           -0.206364	            0.005661	           -0.675820	            0.025880	           -1.527441	           -0.109709
            1.257500	           -6.240255	          629.873894	          -45.571417	           -0.211853	            0.006260	           -0.413084	           -0.028361	            2.862701	           -0.207117	          -11.654954	          703.611374	           50.334902	           -0.206360	            0.005662	           -0.676230	            0.024716	           -1.492133	           -0.106744
            1.258000	           -5.825136	          624.102916	          -45.001045	           -0.211937	            0.006259	           -0.412906	           -0.026027	            2.788575	           -0.201071	          -11.022164	          696.985771	           49.888636	           -0.206191	            0.005662	           -0.676000	            0.024231	           -1.532264	           -0.109676
            1.258500	           -5.593436	          617.971507	          -44.477624	           -0.211903	            0.006259	           -0.412911	           -0.024321	            2.687041	           -0.193396	          -10.626803	          691.278792	           49.774252	           -0.206251	            0.005662	           -0.676004	            0.022947	           -1.492732	           -0.107481
            1.259000	           -5.131185	          610.756644	          -43.500850	           -0.211726	            0.006260	           -0.412948	           -0.021664	            2.578600	           -0.183660	          -10.415038	          684.467799	           49.233652	           -0.206185	            0.005661	           -0.675889	            0.022731	           -1.493891	           -0.107455
            1.259500	           -4.716293	          604.986059	          -43.022198	           -0.211726	            0.006259	           -0.412893	           -0.018967	            2.433036	           -0.173020	          -10.346482	          678.392983	           48.695740	           -0.205940	            0.005662	           -0.675752	            0.020462	           -1.341638	           -0.096304
            1.260000	           -4.026472	          598.675155	          -42.638251	           -0.211540	            0.006260	           -0.412955	           -0.016474	            2.449420	           -0.174450	           -9.951511	          672.689184	           47.689721	           -0.205860	            0.005662	           -0.675782	            0.019658	           -1.328829	           -0.094206
            1.260500	           -3.290825	          593.085125	          -42.205474	           -0.211552	            0.006258	           -0.412633	           -0.014195	            2.558343	           -0.182058	           -9.693726	          666.063901	           46.774334	           -0.205893	            0.005662	           -0.675707	            0.017621	           -1.210722	           -0.085023
            1.261000	           -2.555144	          586.053363	          -41.870592	           -0.211423	            0.006260	           -0.413082	           -0.011341	            2.601154	           -0.185840	           -9.346565	          660.725324	           46.614355	           -0.205906	            0.005662	           -0.675824	            0.017397	           -1.229801	           -0.086763
            1.261500	           -2.232522	          579.743052	          -41.669167	           -0.211402	            0.006259	           -0.412741	           -0.009483	            2.462551	           -0.176996	           -8.948627	          654.282452	           46.309630	           -0.205647	            0.005663	           -0.675735	            0.016662	           -1.218251	           -0.086227
            1.262000	           -1.954311	          573.070024	          -40.918895	           -0.211438	            0.006260	           -0.413074	           -0.008009	            2.348378	           -0.167681	           -8.507184	          648.760681	           45.961242	           -0.205560	            0.005664	           -0.675925	            0.016680	           -1.272050	           -0.090118
            1.262500	           -1.814671	          567.119484	          -40.532045	           -0.211216	            0.006260	           -0.412978	           -0.007050	            2.203368	           -0.157475	           -8.065240	          643.056169	           45.236773	           -0.205617	            0.005664	           -0.676015	            0.015994	           -1.275243	           -0.089709
            1.263000	           -1.399663	          560.087267	          -40.104655	           -0.211086	            0.006261	           -0.413246	           -0.005264	            2.106439	           -0.150830	           -8.043575	          636.981397	           44.605024	           -0.205491	            0.005664	           -0.675810	            0.015033	           -1.190460	           -0.083363
